<?xml version="1.0" encoding="UTF-8" standalone="no"?>
<!-- Generator: Adobe Illustrator 19.0.0, SVG Export Plug-In . SVG Version: 6.00 Build 0)  -->

<svg
   xmlns:dc="http://purl.org/dc/elements/1.1/"
   xmlns:cc="http://creativecommons.org/ns#"
   xmlns:rdf="http://www.w3.org/1999/02/22-rdf-syntax-ns#"
   xmlns:svg="http://www.w3.org/2000/svg"
   xmlns="http://www.w3.org/2000/svg"
   xmlns:sodipodi="http://sodipodi.sourceforge.net/DTD/sodipodi-0.dtd"
   xmlns:inkscape="http://www.inkscape.org/namespaces/inkscape"
   version="1.1"
   id="Layer_1"
   x="0px"
   y="0px"
   viewBox="0 0 512.005 512.005"
   style="enable-background:new 0 0 512.005 512.005;"
   xml:space="preserve"
   sodipodi:docname="chat.svg"
   inkscape:version="0.92.0 r15299"><metadata
     id="metadata81"><rdf:RDF><cc:Work
         rdf:about=""><dc:format>image/svg+xml</dc:format><dc:type
           rdf:resource="http://purl.org/dc/dcmitype/StillImage" /></cc:Work></rdf:RDF></metadata><defs
     id="defs79" /><sodipodi:namedview
     pagecolor="#ffffff"
     bordercolor="#666666"
     borderopacity="1"
     objecttolerance="10"
     gridtolerance="10"
     guidetolerance="10"
     inkscape:pageopacity="0"
     inkscape:pageshadow="2"
     inkscape:window-width="2400"
     inkscape:window-height="1271"
     id="namedview77"
     showgrid="false"
     inkscape:zoom="2"
     inkscape:cx="256.0025"
     inkscape:cy="256.0025"
     inkscape:window-x="-9"
     inkscape:window-y="-9"
     inkscape:window-maximized="1"
     inkscape:current-layer="Layer_1" /><path
     style="fill:#a2d5da;fill-opacity:1"
     d="M256.002,512c141.002,0,256-115.003,256-256c0-141.002-114.998-256-256-256s-256,114.998-256,256  S115.005,512,256.002,512z"
     id="path2" /><path
     style="fill:#7f4526;stroke-width:1.07929242;fill-opacity:1"
     d="m 350.682,291.38334 c 7.884,-15.44154 20.313,-33.36892 7.69,-60.61412 -18.577,-94.62838 67.046,-113.81964 79.992,-74.76381 21.066,9.25374 20.507,60.19476 9.672,86.8482 -0.485,10.97076 -10.272,20.53669 7.418,48.83726 l 1.275,-0.32267 v 0 c -22.95,7.74756 -81.779,4.17956 -106.047,0.0151 z"
     id="path4"
     inkscape:connector-curvature="0" /><path
     style="fill:#FED198;"
     d="M373.181,227.451c6.457,13.561,8.84,18.858,16.863,24.951c-1.875,34.539-28.396,18.036-47.79,49.352  c-1.677,2.702-6.919,16.216-11.542,29.352c21.491,14.073,47.176,22.262,74.783,22.262c27.602,0,53.291-8.189,74.783-22.262  c-4.623-13.14-9.866-26.65-11.542-29.352c-19.394-31.315-45.92-14.812-47.79-49.352c8.018-6.097,10.406-11.39,16.863-24.951  c1.58,0.827,3.238,1.949,4.522,0.503c1.284-1.446,7.399-20.207,6.3-22.743c-1.099-2.531-2.171-0.919-3.815,0.231  c0.088-0.545-1.293,6.78-1.275,5.667c0.157-8.854-6.189-16.66-8.18-40.096c-18.415,34.054-71.448,20.05-69.185,34.433  c-10.328-7.233,2.222,22.216,2.485,22.507C369.943,229.4,371.596,228.278,373.181,227.451z"
     id="path6" /><path
     style="fill:#ECF0F1;"
     d="M385.762,268.531c-2.272,3.57-5.312,5.852-8.84,7.736l0.005,0.005l29.588,56.081l27.459-56.123  c-3.931-2.111-7.251-4.73-9.57-9.09l-0.005-0.005l-18.771,9.339l-0.577,0.042l-16.655-8.914l-2.633,0.933V268.531z"
     id="path8" /><path
     style="fill:#3fb4be;fill-opacity:1"
     d="M376.926,276.263c-9.833,5.256-23.45,7.372-34.678,25.491c-1.677,2.702-6.919,16.216-11.542,29.352  c21.491,14.073,47.176,22.262,74.783,22.262c27.602,0,53.291-8.189,74.783-22.262c-4.623-13.14-9.866-26.65-11.542-29.352  c-11.256-18.175-24.914-20.244-34.761-25.528l-28.276,55.435l-28.766-55.393l-0.005-0.005H376.926z"
     id="path12" /><path
     style="fill:#FFFFFF;"
     d="M387.882,261.88l-4.457,9.302l13.26,22.276l8.674-16.988l-17.473-14.591H387.882z M423.096,261.88  L423.096,261.88l4.54,9.085l-13.339,22.493l-8.669-16.988L423.096,261.88z"
     id="path14" /><path
     style="fill:#3598a1;fill-opacity:1"
     d="M379.18,274.951l26.521,51.656l26.124-51.633c1.312,0.836,2.711,1.575,4.18,2.282l-30.304,59.217  l-30.59-59.287c1.427-0.688,2.79-1.413,4.069-2.231V274.951z"
     id="path16" /><path
     style="fill:#F0B97D;"
     d="M127.471,243.566h10.318h31.301h10.318l4.208,43.777l7.473,5.995l15.759,10.037l-53.411,126.162  l-53.411-126.162l15.759-10.037l7.478-5.991l4.203-43.777L127.471,243.566z"
     id="path18" /><path
     style="fill:#ECF0F1;"
     d="M110.336,296.576l-43.052,13.741l86.159,119.22l73.3-123.22l-30.415-9.644l-26.784,18.909h-32.11  l-27.098-19.011V296.576z"
     id="path20" /><path
     style="fill:#5e492e;fill-opacity:1"
     d="M143.831,313.85l3.681,9.081l-8.18,103.46l14.115,10.799l14.11-10.799l-8.18-103.46l3.681-9.081  l-9.612-0.383l-9.612,0.383H143.831z"
     id="path22" /><path
     style="fill:#3fb4be;fill-opacity:1"
     d="M111.075,296.345l-76.145,24.304c0,0-9.921,5.455-12.831,20.711  c-0.554,2.914-0.854,8.808-0.984,16.563c36.331,83.614,115.991,144.032,210.639,152.927l4.355-72.496l4.125,73.152  c5.215,0.319,10.471,0.499,15.764,0.499c12.868,0,25.505-0.961,37.86-2.794c-2.388-35.837-6.411-153.897-9.071-167.851  c-2.914-15.256-12.831-20.711-12.831-20.711l-75.628-23.971l-42.262,138.563L111.075,296.35V296.345z"
     id="path24" /><path
     style="fill:#3598a1;fill-opacity:1"
     d="M111.075,296.345l-16.424,5.242l-3.155,41.675c0,0,0.868,3.423,3.478,3.118l14.822,5.575  c0,0,0.975,0.97,0.106,2.199l-12.688,8.693l57.772,104.869l54.691-104.869l-12.688-8.693c-0.868-1.229,0.102-2.199,0.102-2.199  l14.822-5.575c2.61,0.309,3.478-3.118,3.478-3.118l-3.145-41.541l-15.921-5.048l-42.262,138.563L111.07,296.345H111.075z"
     id="path26" /><path
     style="fill:#FED198;"
     d="M90.031,152.909c0,4.263-1.557,8.438-1.441,12.531c-14.591-2.707-7.542,40.631,0.711,46.59  c0.656,0.471,2.272-0.582,3.63-1.45c2.864,15.939,27.302,58.534,42.844,76.459c4.314,4.979,30.701,4.896,34.973,0.189  c15.916-17.524,40.326-60.621,43.204-76.653c1.363,0.868,2.974,1.921,3.63,1.45c8.254-5.958,15.302-49.296,0.711-46.59  c0.115-4.092-1.441-8.268-1.441-12.531c-0.808-33.652-31.301-50.455-63.411-50.599c-32.11,0.143-62.603,16.946-63.416,50.599  L90.031,152.909z"
     id="path28" /><path
     style="fill:#666666;"
     d="M109.583,109.765c-4.6-0.536-21.223,4.554-23.219,22.142c-1.995,17.584-1.044,33.791-1.044,33.791  s9.736,2.457,10.965,12.438c1.224,9.981,0.351,9.981,0.351,9.981l3.529-0.794l2.513-17.113c14.568-9.131-0.111-22.65,14.461-25.819  c39.352,28.045,74.076,23.246,89.733,10.05c0,0-3.658,13.801-0.836,18.72c2.817,4.924,1.136,12.674,1.136,12.674l3.663-0.176  c0,0-0.66-20.323,7.464-20.23c30.872-50.977-66.866-114.291-108.712-55.675L109.583,109.765z"
     id="path30" /><g
     id="g38"><path
       style="fill:#FFFFFF;"
       d="M122.908,281.094c1.09,0.079-12.711,15.644-12.711,15.644l11.75,40.234l31.5-23.505   C136.117,304.964,125.781,293.952,122.908,281.094z"
       id="path32" /><path
       style="fill:#FFFFFF;"
       d="M183.982,281.094c-1.09,0.079,12.711,15.644,12.711,15.644l-11.75,40.234l-31.5-23.505   C170.768,304.964,181.114,293.952,183.982,281.094z"
       id="path34" /><path
       style="fill:#FFFFFF;"
       d="M327.649,168.848l23.56,24.179l-6.425-24.179h1.944c2.956,0,5.376-2.42,5.376-5.376v-43.883   c0-2.956-2.416-5.376-5.376-5.376h-81.05c-2.956,0-5.376,2.416-5.376,5.376v43.883c0,2.956,2.416,5.376,5.376,5.376h61.965H327.649   z"
       id="path36" /></g><path
     style="fill:#5e492e;fill-opacity:1"
     d="M272.223,121.742H334.6v3.187h-62.377V121.742z M272.223,143.759L272.223,143.759h36.959v3.187  h-36.959V143.759z M272.223,136.42L272.223,136.42H334.6v3.187h-62.377V136.42z M272.223,129.081L272.223,129.081H334.6v3.187  h-62.377V129.081z"
     id="path40" /><path
     style="fill:#FFFFFF;"
     d="M261.919,260.069l-27.773,28.502l7.57-28.502h-2.296c-3.483,0-6.332-2.85-6.332-6.332v-51.726  c0-3.483,2.85-6.332,6.332-6.332h95.535c3.483,0,6.332,2.85,6.332,6.332v51.726c0,3.483-2.85,6.332-6.332,6.332h-73.041H261.919z"
     id="path42" /><path
     style="fill:#5e492e;fill-opacity:1"
     d="M327.247,204.547h-73.526v3.755h73.526V204.547z M327.247,230.5L327.247,230.5h-43.564v3.755h43.564  V230.5z M327.247,221.849L327.247,221.849h-73.526v3.755h73.526V221.849z M327.247,213.198L327.247,213.198h-73.526v3.755h73.526  V213.198z"
     id="path44" /><g
     id="g46" /><g
     id="g48" /><g
     id="g50" /><g
     id="g52" /><g
     id="g54" /><g
     id="g56" /><g
     id="g58" /><g
     id="g60" /><g
     id="g62" /><g
     id="g64" /><g
     id="g66" /><g
     id="g68" /><g
     id="g70" /><g
     id="g72" /><g
     id="g74" /></svg>