<?xml version="1.0" encoding="UTF-8" standalone="no"?>
<svg
   xmlns:dc="http://purl.org/dc/elements/1.1/"
   xmlns:cc="http://creativecommons.org/ns#"
   xmlns:rdf="http://www.w3.org/1999/02/22-rdf-syntax-ns#"
   xmlns:svg="http://www.w3.org/2000/svg"
   xmlns="http://www.w3.org/2000/svg"
   xmlns:sodipodi="http://sodipodi.sourceforge.net/DTD/sodipodi-0.dtd"
   xmlns:inkscape="http://www.inkscape.org/namespaces/inkscape"
   viewBox="0 0 370.10163 206.19834"
   height="206.19833"
   width="370.10162"
   xml:space="preserve"
   id="svg2"
   version="1.1"
   sodipodi:docname="platypoda-logo.svg"
   inkscape:version="0.92.0 r15299"
   inkscape:export-filename="C:\Users\firel\Dropbox\Platypoda Productions\logos\platypoda-logo.png"
   inkscape:export-xdpi="96"
   inkscape:export-ydpi="96"><sodipodi:namedview
     pagecolor="#ffffff"
     bordercolor="#666666"
     borderopacity="1"
     objecttolerance="10"
     gridtolerance="10"
     guidetolerance="10"
     inkscape:pageopacity="0"
     inkscape:pageshadow="2"
     inkscape:window-width="1920"
     inkscape:window-height="1001"
     id="namedview102"
     showgrid="false"
     fit-margin-top="0"
     fit-margin-left="0"
     fit-margin-right="0"
     fit-margin-bottom="0"
     inkscape:zoom="1.11"
     inkscape:cx="203.61682"
     inkscape:cy="95.448277"
     inkscape:window-x="-9"
     inkscape:window-y="-9"
     inkscape:window-maximized="1"
     inkscape:current-layer="g10" /><metadata
     id="metadata8"><rdf:RDF><cc:Work
         rdf:about=""><dc:format>image/svg+xml</dc:format><dc:type
           rdf:resource="http://purl.org/dc/dcmitype/StillImage" /><dc:title></dc:title></cc:Work></rdf:RDF></metadata><defs
     id="defs6"><clipPath
       id="clipPath18"
       clipPathUnits="userSpaceOnUse"><path
         id="path16"
         d="M 0,504 H 504 V 0 H 0 Z"
         inkscape:connector-curvature="0" /></clipPath></defs><g
     transform="matrix(1.3333333,0,0,-1.3333333,-139.8388,447.10979)"
     id="g10"><g
       id="g12"><g
         clip-path="url(#clipPath18)"
         id="g14"><g
           transform="translate(112.4033,222.3418)"
           id="g20"><path
             id="path22"
             style="fill:#5e492e;fill-opacity:1;fill-rule:nonzero;stroke:none"
             d="m 0,0 v -16.212 h 3.557 c 2.394,0 3.694,1.095 3.694,4.515 v 7.182 C 7.251,-1.094 5.951,0 3.557,0 Z m 14.775,-4.993 v -6.225 c 0,-7.662 -3.694,-11.835 -11.218,-11.835 H 0 v -17.99 H -7.524 V 6.841 H 3.557 c 7.524,0 11.218,-4.173 11.218,-11.834"
             inkscape:connector-curvature="0" /></g><g
           transform="translate(138.1924,222.3418)"
           id="g24"><path
             id="path26"
             style="fill:#5e492e;fill-opacity:1;fill-rule:nonzero;stroke:none"
             d="m 0,0 v -14.707 h 2.941 c 2.805,0 4.515,1.232 4.515,5.062 v 4.72 C 7.456,-1.505 6.293,0 3.625,0 Z m 8.208,-41.043 c -0.41,1.232 -0.684,1.984 -0.684,5.883 v 7.525 c 0,4.446 -1.504,6.088 -4.924,6.088 H 0 V -41.043 H -7.524 V 6.841 H 3.831 c 7.797,0 11.149,-3.626 11.149,-11.013 v -3.764 c 0,-4.923 -1.573,-8.139 -4.924,-9.712 3.762,-1.573 4.993,-5.2 4.993,-10.192 v -7.389 c 0,-2.324 0.069,-4.035 0.821,-5.814 z"
             inkscape:connector-curvature="0" /></g><g
           transform="translate(165.0757,192.3125)"
           id="g28"><path
             id="path30"
             style="fill:#5e492e;fill-opacity:1;fill-rule:nonzero;stroke:none"
             d="m 0,0 c 0,-3.42 1.505,-4.719 3.899,-4.719 2.394,0 3.899,1.299 3.899,4.719 v 25.857 c 0,3.42 -1.505,4.719 -3.899,4.719 C 1.505,30.576 0,29.277 0,25.857 Z m -7.524,25.378 c 0,7.661 4.035,12.039 11.423,12.039 7.388,0 11.424,-4.378 11.424,-12.039 V 0.479 c 0,-7.661 -4.036,-12.04 -11.424,-12.04 -7.388,0 -11.423,4.379 -11.423,12.04 z"
             inkscape:connector-curvature="0" /></g><g
           transform="translate(192.7803,222.3418)"
           id="g32"><path
             id="path34"
             style="fill:#5e492e;fill-opacity:1;fill-rule:nonzero;stroke:none"
             d="m 0,0 v -34.201 h 4.241 c 2.394,0 3.831,1.23 3.831,4.65 v 24.9 C 8.072,-1.23 6.635,0 4.241,0 Z M -7.524,6.841 H 4.378 c 7.524,0 11.218,-4.173 11.218,-11.834 v -24.216 c 0,-7.66 -3.694,-11.834 -11.218,-11.834 H -7.524 Z"
             inkscape:connector-curvature="0" /></g><g
           transform="translate(220.3477,229.1826)"
           id="g36"><path
             id="path38"
             style="fill:#5e492e;fill-opacity:1;fill-rule:nonzero;stroke:none"
             d="m 0,0 v -36.938 c 0,-3.42 1.505,-4.651 3.899,-4.651 2.394,0 3.899,1.231 3.899,4.651 V 0 h 7.114 v -36.46 c 0,-7.66 -3.83,-12.039 -11.218,-12.039 -7.388,0 -11.219,4.379 -11.219,12.039 V 0 Z"
             inkscape:connector-curvature="0" /></g><g
           transform="translate(262.2119,199.1523)"
           id="g40"><path
             id="path42"
             style="fill:#5e492e;fill-opacity:1;fill-rule:nonzero;stroke:none"
             d="m 0,0 v -6.361 c 0,-7.66 -3.831,-12.039 -11.218,-12.039 -7.388,0 -11.219,4.379 -11.219,12.039 v 24.899 c 0,7.661 3.831,12.039 11.219,12.039 C -3.831,30.577 0,26.199 0,18.538 v -4.651 h -7.114 v 5.131 c 0,3.42 -1.505,4.718 -3.899,4.718 -2.395,0 -3.9,-1.298 -3.9,-4.718 V -6.84 c 0,-3.42 1.505,-4.65 3.9,-4.65 2.394,0 3.899,1.23 3.899,4.65 V 0 Z"
             inkscape:connector-curvature="0" /></g><g
           transform="translate(264.6055,229.1826)"
           id="g44"><path
             id="path46"
             style="fill:#5e492e;fill-opacity:1;fill-rule:nonzero;stroke:none"
             d="M 0,0 H 23.258 V -6.841 H 15.392 V -47.884 H 7.867 V -6.841 H 0 Z"
             inkscape:connector-curvature="0" /></g><path
           id="path48"
           style="fill:#5e492e;fill-opacity:1;fill-rule:nonzero;stroke:none"
           d="m 291.146,229.183 h 7.524 v -47.884 h -7.524 z"
           inkscape:connector-curvature="0" /><g
           transform="translate(311.0518,192.3125)"
           id="g50"><path
             id="path52"
             style="fill:#5e492e;fill-opacity:1;fill-rule:nonzero;stroke:none"
             d="m 0,0 c 0,-3.42 1.505,-4.719 3.898,-4.719 2.395,0 3.9,1.299 3.9,4.719 v 25.857 c 0,3.42 -1.505,4.719 -3.9,4.719 C 1.505,30.576 0,29.277 0,25.857 Z m -7.525,25.378 c 0,7.661 4.036,12.039 11.423,12.039 7.388,0 11.424,-4.378 11.424,-12.039 V 0.479 c 0,-7.661 -4.036,-12.04 -11.424,-12.04 -7.387,0 -11.423,4.379 -11.423,12.04 z"
             inkscape:connector-curvature="0" /></g><g
           transform="translate(337.9346,215.9805)"
           id="g54"><path
             id="path56"
             style="fill:#5e492e;fill-opacity:1;fill-rule:nonzero;stroke:none"
             d="m 0,0 v -34.682 h -6.771 v 47.884 h 9.439 l 7.73,-28.661 v 28.661 h 6.705 V -34.682 H 9.372 Z"
             inkscape:connector-curvature="0" /></g><g
           transform="translate(370.5645,229.7295)"
           id="g58"><path
             id="path60"
             style="fill:#5e492e;fill-opacity:1;fill-rule:nonzero;stroke:none"
             d="m 0,0 c 7.319,0 11.081,-4.378 11.081,-12.039 v -1.505 H 3.968 v 1.984 c 0,3.42 -1.368,4.719 -3.763,4.719 -2.394,0 -3.763,-1.299 -3.763,-4.719 0,-9.851 14.707,-11.698 14.707,-25.378 0,-7.661 -3.83,-12.04 -11.217,-12.04 -7.388,0 -11.219,4.379 -11.219,12.04 v 2.941 h 7.115 v -3.42 c 0,-3.42 1.505,-4.65 3.899,-4.65 2.393,0 3.898,1.23 3.898,4.65 0,9.85 -14.707,11.697 -14.707,25.378 C -11.082,-4.378 -7.319,0 0,0"
             inkscape:connector-curvature="0" /></g><g
           transform="translate(327.2881,283.5151)"
           id="g72"><path
             id="path74"
             style="fill:#c2aa8c;fill-opacity:1;fill-rule:nonzero;stroke:none"
             d="m 0,0 v -40.747 h 5.054 c 2.851,0 4.562,1.467 4.562,5.542 V -5.542 C 9.616,-1.467 7.905,0 5.054,0 Z m -8.964,8.149 h 14.18 c 8.964,0 13.364,-4.971 13.364,-14.098 v -28.849 c 0,-9.127 -4.4,-14.098 -13.364,-14.098 h -14.18 z"
             inkscape:connector-curvature="0" /></g><g
           transform="translate(328.041,243.5205)"
           id="g76"><path
             id="path78"
             style="fill:#5e492e;fill-opacity:1;fill-rule:nonzero;stroke:none"
             d="m 0,0 h 4.301 c 1.883,0 3.81,0.569 3.81,4.79 v 29.663 c 0,4.22 -1.927,4.789 -3.81,4.789 H 0 Z m 4.301,-1.505 h -5.807 v 42.252 h 5.807 c 3.525,0 5.314,-2.118 5.314,-6.294 V 4.79 c 0,-4.178 -1.789,-6.295 -5.314,-6.295 M -8.965,-8.149 H 4.463 c 8.368,0 12.612,4.49 12.612,13.345 v 28.85 c 0,8.855 -4.244,13.345 -12.612,13.345 H -8.965 Z M 4.463,-9.653 H -10.47 V 48.896 H 4.463 c 9.235,0 14.116,-5.135 14.116,-14.85 V 5.196 c 0,-9.715 -4.881,-14.849 -14.116,-14.849"
             inkscape:connector-curvature="0" /></g><g
           transform="translate(294.2832,247.7393)"
           id="g80"><path
             id="path82"
             style="fill:#c2aa8c;fill-opacity:1;fill-rule:nonzero;stroke:none"
             d="m 0,0 c 0,-4.074 1.793,-5.622 4.646,-5.622 2.852,0 4.645,1.548 4.645,5.622 v 30.805 c 0,4.074 -1.793,5.623 -4.645,5.623 C 1.793,36.428 0,34.879 0,30.805 Z m -8.964,30.234 c 0,9.127 4.808,14.343 13.61,14.343 8.801,0 13.609,-5.216 13.609,-14.343 V 0.571 c 0,-9.127 -4.808,-14.343 -13.609,-14.343 -8.802,0 -13.61,5.216 -13.61,14.343 z"
             inkscape:connector-curvature="0" /></g><g
           transform="translate(298.9297,283.4146)"
           id="g84"><path
             id="path86"
             style="fill:#5e492e;fill-opacity:1;fill-rule:nonzero;stroke:none"
             d="m 0,0 c -1.813,0 -3.893,-0.554 -3.893,-4.871 v -30.804 c 0,-4.318 2.08,-4.87 3.893,-4.87 1.812,0 3.893,0.552 3.893,4.87 V -4.871 C 3.893,-0.554 1.812,0 0,0 m 0,-42.051 c -2.463,0 -5.398,1.107 -5.398,6.376 v 30.804 c 0,5.269 2.935,6.376 5.398,6.376 2.461,0 5.397,-1.107 5.397,-6.376 v -30.804 c 0,-5.269 -2.936,-6.376 -5.397,-6.376 m 0,50.2 c -8.291,0 -12.857,-4.827 -12.857,-13.59 v -29.663 c 0,-8.765 4.566,-13.591 12.857,-13.591 8.29,0 12.855,4.826 12.855,13.591 V -5.441 C 12.855,3.322 8.29,8.149 0,8.149 M 0,-50.2 c -9.127,0 -14.362,5.502 -14.362,15.096 v 29.663 c 0,9.593 5.235,15.095 14.362,15.095 9.127,0 14.361,-5.502 14.361,-15.095 V -35.104 C 14.361,-44.698 9.127,-50.2 0,-50.2"
             inkscape:connector-curvature="0" /></g><g
           transform="translate(281.2754,299.6377)"
           id="g88"><path
             id="path90"
             style="fill:#a78963;fill-opacity:1;fill-rule:nonzero;stroke:none"
             d="m 0,0 c 0,0 1.293,4.046 4.045,8.739 2.751,4.692 18.447,25.891 33.012,26.861 14.564,0.972 20.387,-5.825 22.169,-7.443 1.781,-1.618 9.224,-7.444 9.224,-7.444 l 1.942,-4.531 c 0,0 -2.266,-0.971 -6.797,3.074 0,0 -2.75,0.162 -4.856,-2.103 0,0 -1.92,-2.473 -3.698,-5.547 C 53.26,8.531 54.07,8.693 54.07,8.693 c 0,0 -2.029,-4.809 -3.162,-6.427 -1.133,-1.619 1.457,-4.208 1.457,-4.208 0,0 -4.629,1.456 -6.084,-0.162 -1.457,-1.618 -3.075,-2.913 -2.266,-7.281 0,0 -0.972,0.485 -3.237,-0.971 l -2.264,-1.457 c 0,0 2.264,2.266 0.808,2.266 -1.457,0 -5.017,-0.486 -5.017,-0.486 L 29.774,-11.004 -5.34,-22.332 Z"
             inkscape:connector-curvature="0" /></g><g
           transform="translate(114.5952,283.5151)"
           id="g92"><path
             id="path94"
             style="fill:#c2aa8c;fill-opacity:1;fill-rule:nonzero;stroke:none"
             d="m 0,0 v -19.314 h 4.238 c 2.852,0 4.401,1.304 4.401,5.378 v 8.557 C 8.639,-1.304 7.09,0 4.238,0 Z m 17.603,-5.949 v -7.416 c 0,-9.127 -4.401,-14.098 -13.365,-14.098 H 0 V -48.896 H -8.964 V 8.149 H 4.238 c 8.964,0 13.365,-4.971 13.365,-14.098"
             inkscape:connector-curvature="0" /></g><g
           transform="translate(115.3481,264.9536)"
           id="g96"><path
             id="path98"
             style="fill:#5e492e;fill-opacity:1;fill-rule:nonzero;stroke:none"
             d="m 0,0 h 3.485 c 2.252,0 3.648,0.774 3.648,4.626 v 8.557 c 0,3.852 -1.396,4.626 -3.648,4.626 H 0 Z m 3.485,-1.505 h -4.99 v 20.819 h 4.99 c 3.515,0 5.153,-1.949 5.153,-6.131 V 4.626 C 8.638,0.443 7,-1.505 3.485,-1.505 M -8.964,-29.583 h 7.459 v 21.434 h 4.99 c 8.369,0 12.613,4.49 12.613,13.345 v 7.417 c 0,8.855 -4.244,13.345 -12.613,13.345 H -8.964 Z M 0,-31.086 H -10.469 V 27.463 H 3.485 c 9.236,0 14.117,-5.135 14.117,-14.85 V 5.196 c 0,-9.715 -4.881,-14.85 -14.117,-14.85 H 0 Z"
             inkscape:connector-curvature="0" /></g><g
           transform="translate(136.354,291.6641)"
           id="g100"><path
             id="path102"
             style="fill:#c2aa8c;fill-opacity:1;fill-rule:nonzero;stroke:none"
             d="m 0,0 h 8.964 v -48.896 h 14.75 v -8.149 H 0 Z"
             inkscape:connector-curvature="0" /></g><g
           transform="translate(137.1064,235.3711)"
           id="g104"><path
             id="path106"
             style="fill:#5e492e;fill-opacity:1;fill-rule:nonzero;stroke:none"
             d="M 0,0 H 22.209 V 6.645 H 7.459 V 55.541 H 0 Z M 23.714,-1.504 H -1.505 V 57.045 H 8.964 V 8.149 h 14.75 z"
             inkscape:connector-curvature="0" /></g><g
           transform="translate(172.5361,252.7104)"
           id="g108"><path
             id="path110"
             style="fill:#c2aa8c;fill-opacity:1;fill-rule:nonzero;stroke:none"
             d="M 0,0 H 8.638 L 4.319,28.849 Z M 20.455,-18.091 H 11.409 L 9.86,-7.742 H -1.142 L -2.69,-18.091 h -8.23 l 9.127,57.045 h 13.12 z"
             inkscape:connector-curvature="0" /></g><g
           transform="translate(173.4092,253.4629)"
           id="g112"><path
             id="path114"
             style="fill:#5e492e;fill-opacity:1;fill-rule:nonzero;stroke:none"
             d="M 0,0 H 6.891 L 3.446,23.014 Z M 8.638,-1.505 H -1.747 l 4.448,29.712 h 1.488 z m 2.546,-16.587 h 7.515 L 9.813,37.449 H -2.025 l -8.886,-55.541 h 6.7 l 1.548,10.35 H 9.635 Z m 9.28,-1.504 H 9.887 l -1.548,10.35 h -9.705 l -1.549,-10.35 h -9.761 l 9.368,58.55 h 14.403 z"
             inkscape:connector-curvature="0" /></g><g
           transform="translate(191.4419,291.6641)"
           id="g116"><path
             id="path118"
             style="fill:#c2aa8c;fill-opacity:1;fill-rule:nonzero;stroke:none"
             d="M 0,0 H 27.708 V -8.149 H 18.336 V -57.045 H 9.372 V -8.149 H 0 Z"
             inkscape:connector-curvature="0" /></g><g
           transform="translate(201.5659,235.3711)"
           id="g120"><path
             id="path122"
             style="fill:#5e492e;fill-opacity:1;fill-rule:nonzero;stroke:none"
             d="m 0,0 h 7.459 v 48.896 h 9.372 v 6.645 H -9.372 V 48.896 H 0 Z M 8.964,-1.504 H -1.505 v 48.895 h -9.371 v 9.654 H 18.336 V 47.391 H 8.964 Z"
             inkscape:connector-curvature="0" /></g><g
           transform="translate(231.4536,253.5254)"
           id="g124"><path
             id="path126"
             style="fill:#c2aa8c;fill-opacity:1;fill-rule:nonzero;stroke:none"
             d="m 0,0 -11.328,38.139 h 9.372 L 4.89,12.143 11.735,38.139 h 8.557 L 8.965,0 V -18.906 H 0 Z"
             inkscape:connector-curvature="0" /></g><g
           transform="translate(232.2061,235.3711)"
           id="g128"><path
             id="path130"
             style="fill:#5e492e;fill-opacity:1;fill-rule:nonzero;stroke:none"
             d="M 0,0 H 7.46 V 18.264 L 18.531,55.541 H 11.563 L 4.137,27.342 -3.288,55.541 h -7.783 L 0,18.264 Z m 8.965,-1.504 h -10.47 v 19.549 l -11.583,39 h 10.96 l 6.265,-23.793 6.266,23.793 h 10.145 l -11.583,-39 z"
             inkscape:connector-curvature="0" /></g><g
           transform="translate(360.0479,252.7104)"
           id="g132"><path
             id="path134"
             style="fill:#c2aa8c;fill-opacity:1;fill-rule:nonzero;stroke:none"
             d="M 0,0 H 8.639 L 4.32,28.849 Z M 20.455,-18.091 H 11.408 L 9.859,-7.742 h -11 l -1.548,-10.349 h -8.231 l 9.127,57.045 h 13.121 z"
             inkscape:connector-curvature="0" /></g><g
           transform="translate(360.9209,253.4629)"
           id="g136"><path
             id="path138"
             style="fill:#5e492e;fill-opacity:1;fill-rule:nonzero;stroke:none"
             d="M 0,0 H 6.891 L 3.447,23.014 Z M 8.639,-1.505 H -1.748 l 4.449,29.712 h 1.488 z m 2.545,-16.587 h 7.515 L 9.813,37.449 H -2.025 l -8.885,-55.541 h 6.699 l 1.549,10.35 H 9.635 Z m 9.279,-1.504 H 9.889 l -1.551,10.35 h -9.703 l -1.549,-10.35 h -9.762 l 9.369,58.55 h 14.403 z"
             inkscape:connector-curvature="0" /></g><g
           transform="translate(264.2949,283.5151)"
           id="g140"><path
             id="path142"
             style="fill:#c2aa8c;fill-opacity:1;fill-rule:nonzero;stroke:none"
             d="m 0,0 v -19.314 h 4.238 c 2.852,0 4.401,1.304 4.401,5.378 v 8.557 C 8.639,-1.304 7.09,0 4.238,0 Z m 17.603,-5.949 v -7.416 c 0,-9.127 -4.401,-14.098 -13.365,-14.098 H 0 V -48.896 H -8.964 V 8.149 H 4.238 c 8.964,0 13.365,-4.971 13.365,-14.098"
             inkscape:connector-curvature="0" /></g><g
           transform="translate(265.0469,264.9536)"
           id="g144"><path
             id="path146"
             style="fill:#5e492e;fill-opacity:1;fill-rule:nonzero;stroke:none"
             d="m 0,0 h 3.486 c 2.252,0 3.648,0.774 3.648,4.626 v 8.557 c 0,3.852 -1.396,4.626 -3.648,4.626 H 0 Z m 3.486,-1.505 h -4.99 v 20.819 h 4.99 c 3.516,0 5.153,-1.949 5.153,-6.131 V 4.626 c 0,-4.183 -1.637,-6.131 -5.153,-6.131 M -8.963,-29.583 h 7.459 v 21.434 h 4.99 c 8.369,0 12.612,4.49 12.612,13.345 v 7.417 c 0,8.855 -4.243,13.345 -12.612,13.345 H -8.963 Z M 0,-31.086 H -10.469 V 27.463 H 3.486 c 9.235,0 14.118,-5.135 14.118,-14.85 V 5.196 c 0,-9.715 -4.883,-14.85 -14.118,-14.85 H 0 Z"
             inkscape:connector-curvature="0" /></g><g
           transform="translate(337.127,291.1777)"
           id="g148"><path
             id="path150"
             style="fill:#a2d5da;fill-opacity:1;fill-rule:nonzero;stroke:none"
             d="m 0,0 c 0,0 -3.885,-2.427 -5.826,-2.427 -1.942,0 -7.445,0.323 -6.473,5.501 0.97,5.179 3.236,4.046 5.502,4.046 2.266,0 6.311,-1.618 6.311,-1.618 z"
             inkscape:connector-curvature="0" /></g><g
           transform="translate(328.2969,298.2524)"
           id="g152"><path
             id="path154"
             style="fill:#3fb4be;fill-opacity:1;fill-rule:nonzero;stroke:none"
             d="m 0,0 c -1.241,0 -2.625,-0.311 -3.322,-4.028 -0.27,-1.443 -0.043,-2.614 0.675,-3.479 1.265,-1.525 3.772,-1.845 5.651,-1.845 1.728,0 5.109,2.017 5.668,2.356 l -0.471,5.317 c -0.596,0.232 -4.138,1.574 -6.168,1.574 -0.355,0 -0.711,0.027 -1.054,0.054 C 0.639,-0.025 0.316,0 0,0 m 3.004,-9.653 c -1.943,0 -4.543,0.34 -5.883,1.954 -0.777,0.937 -1.027,2.191 -0.738,3.726 0.664,3.547 1.928,4.274 3.617,4.274 0.328,0 0.67,-0.027 1.002,-0.052 0.336,-0.026 0.687,-0.053 1.031,-0.053 2.268,0 6.201,-1.563 6.365,-1.629 L 8.486,-1.467 8.988,-7.154 8.908,-7.202 C 8.748,-7.303 4.967,-9.653 3.004,-9.653"
             inkscape:connector-curvature="0" /></g><g
           transform="translate(285.9902,280.9829)"
           id="g156"><path
             id="path158"
             style="fill:#5e492e;fill-opacity:1;fill-rule:nonzero;stroke:none"
             d="m 0,0 c 0,0 -0.648,2.589 1.779,3.884 0,0 1.782,4.207 4.369,3.722 0,0 2.428,3.074 5.018,1.942 l 0.971,-0.162 c 0,0 -0.324,1.942 5.015,1.294 0,0 0.487,1.942 2.59,1.133 2.104,-0.809 5.178,-1.942 5.016,-4.207 -0.16,-2.266 -0.322,-1.295 -0.322,-1.295 0,0 -1.665,0.485 -1.665,-1.294 L 23.742,1.942 21.198,-0.647 20.875,0.23 c 0,0 -1.246,0.647 -1.408,-0.971 L 17.639,-5.34 c 0,0 -2.428,-3.399 -4.856,-2.427 l 3.723,6.796 c 0,0 -0.647,-0.324 -2.59,-0.809 l 0.648,-5.016 c 0,0 -3.56,-2.428 -4.693,-2.428 -1.133,0 -0.485,3.236 -0.485,3.236 0,0 -4.368,-2.912 -5.017,-2.265 -0.648,0.648 0.485,3.399 0.485,3.399 l 0.486,2.427 c 0,0 -1.779,0.323 -1.779,0.97 C 3.561,-0.809 1.619,-1.78 0,0"
             inkscape:connector-curvature="0" /></g><g
           transform="translate(295.0527,278.7173)"
           id="g160"><path
             id="path162"
             style="fill:#a2d5da;fill-opacity:1;fill-rule:nonzero;stroke:none"
             d="m 0,0 c 0,0 1.295,0.486 1.942,0.971 0.646,0.486 -0.163,-3.884 -2.104,-4.046 0,0 1.133,2.59 0.162,3.075"
             inkscape:connector-curvature="0" /></g><g
           transform="translate(299.9063,279.2031)"
           id="g164"><path
             id="path166"
             style="fill:#a2d5da;fill-opacity:1;fill-rule:nonzero;stroke:none"
             d="m 0,0 c 0,0 1.619,0.323 2.59,0.809 0.971,0.485 -2.428,-6.796 -3.56,-5.664 0,0 0.648,3.236 0.97,4.855"
             inkscape:connector-curvature="0" /></g><g
           transform="translate(304.5547,281.145)"
           id="g168"><path
             id="path170"
             style="fill:#a2d5da;fill-opacity:1;fill-rule:nonzero;stroke:none"
             d="M 0,0 C 0,0 2.588,1.78 2.912,0.971 3.236,0.162 0.646,-5.664 -0.324,-5.502 l -0.971,0.162 c 0,0 1.618,4.531 1.295,5.34"
             inkscape:connector-curvature="0" /></g><g
           transform="translate(308.1602,285.9995)"
           id="g172"><path
             id="path174"
             style="fill:#a2d5da;fill-opacity:1;fill-rule:nonzero;stroke:none"
             d="m 0,0 c 0,0 0.971,1.942 2.266,1.294 1.295,-0.647 0,-5.987 0,-5.987 z"
             inkscape:connector-curvature="0" /></g><g
           transform="translate(310.9102,313.8325)"
           id="g176"><path
             id="path178"
             style="fill:#5e492e;fill-opacity:1;fill-rule:nonzero;stroke:none"
             d="m 0,0 4.855,1.942 c 0,0 3.398,-2.427 5.34,-1.78 0,0 0.325,2.266 3.237,2.427 2.912,0.162 2.912,-3.883 2.912,-3.883 l -1.78,-0.648 1.295,-0.809 -2.266,-0.324 0.647,-0.971 -2.427,0.81 1.294,-1.295 -0.646,-0.809 c 0,0 -3.075,1.294 -3.075,3.56 l -4.368,1.133 c 0,0 -3.399,0 -5.018,0.647"
             inkscape:connector-curvature="0" /></g><g
           transform="translate(326.4463,312.2046)"
           id="g180"><path
             id="path182"
             style="fill:#a2d5da;fill-opacity:1;fill-rule:nonzero;stroke:none"
             d="m 0,0 c 0,-1.653 -1.196,-2.994 -2.671,-2.994 -1.475,0 -2.67,1.341 -2.67,2.994 0,1.654 1.195,2.994 2.67,2.994 C -1.196,2.994 0,1.654 0,0"
             inkscape:connector-curvature="0" /></g><g
           transform="translate(325.7979,312.2046)"
           id="g184"><path
             id="path186"
             style="fill:#5e492e;fill-opacity:1;fill-rule:nonzero;stroke:none"
             d="m 0,0 c 0,-1.252 -0.905,-2.268 -2.022,-2.268 -1.118,0 -2.024,1.016 -2.024,2.268 0,1.252 0.906,2.268 2.024,2.268 C -0.905,2.268 0,1.252 0,0"
             inkscape:connector-curvature="0" /></g><g
           transform="translate(323.3711,308.4927)"
           id="g188"><path
             id="path190"
             style="fill:#a78963;fill-opacity:1;fill-rule:nonzero;stroke:none"
             d="M 0,0 0.161,2.266 1.779,1.294 1.455,3.722 2.912,2.589 V 5.502 L 4.691,4.692 C 4.691,4.692 4.531,0.323 0,0"
             inkscape:connector-curvature="0" /></g><g
           transform="translate(333.7285,313.8325)"
           id="g192"><path
             id="path194"
             style="fill:#3fb4be;fill-opacity:1;fill-rule:nonzero;stroke:none"
             d="m 0,0 c 0,0 3.236,2.265 5.501,3.398 2.266,1.133 1.941,1.618 4.531,2.428 0,0 0.485,0.324 1.78,-1.133 1.294,-1.457 4.693,-2.427 5.826,-2.104 0,0 1.295,-2.104 1.295,-4.046 0,0 0.97,-1.294 1.457,-2.265 0,0 3.074,-0.809 4.853,-3.56 1.781,-2.751 3.399,-3.236 5.664,-4.045 2.264,-0.81 18.447,-7.606 17.801,-13.108 -0.648,-5.502 -5.988,-10.68 -11.977,-12.136 -5.986,-1.457 -14.562,-0.486 -14.562,-0.486 0,0 -8.092,2.428 -21.847,16.182 0,0 -1.133,3.075 -0.484,4.046 l -3.236,1.294 c 0,0 -1.62,2.428 -1.457,4.208 0,0 0.486,0.809 1.619,2.427 1.132,1.618 2.103,2.266 2.103,4.369 0,2.104 0.162,3.884 1.133,4.531"
             inkscape:connector-curvature="0" /></g><g
           transform="translate(362.3701,289.0737)"
           id="g196"><path
             id="path198"
             style="fill:#5e492e;fill-opacity:1;fill-rule:nonzero;stroke:none"
             d="m 0,0 c 0,0 0.162,1.618 2.588,1.618 0,0 3.723,-1.78 1.457,-2.589 C 1.779,-1.78 0,0 0,0"
             inkscape:connector-curvature="0" /></g><g
           transform="translate(367.0615,291.3394)"
           id="g200"><path
             id="path202"
             style="fill:#5e492e;fill-opacity:1;fill-rule:nonzero;stroke:none"
             d="M 0,0 C 0,0 -0.484,1.78 0.973,1.78 2.428,1.78 3.236,0.323 2.266,-0.647 1.295,-1.618 0,0 0,0"
             inkscape:connector-curvature="0" /></g></g></g></g><rect
     id="rect3775"
     width="392.77679"
     height="223.47646"
     x="-10.418097"
     y="-5.8626795"
     style="fill:none"
     ry="9.0293512" /><rect
     style="fill:none"
     id="rect4585"
     width="245.20755"
     height="145.23032"
     x="-32.239025"
     y="5.4240179"
     ry="9.0293503" /><rect
     style="fill:none"
     id="rect4587"
     width="39.879635"
     height="226.48624"
     x="-24.714567"
     y="40.788975"
     ry="9.0293503" /><rect
     style="fill:none"
     id="rect4589"
     width="641.08398"
     height="279.90991"
     x="-95.444489"
     y="-29.940947"
     ry="9.0293503" /><rect
     style="fill:none"
     id="rect4591"
     width="26.921675"
     height="30.025124"
     x="282.28336"
     y="51.395939"
     ry="9.0293503" /></svg>